<svg xmlns="http://www.w3.org/2000/svg" xmlns:xlink="http://www.w3.org/1999/xlink" width="1440" viewBox="0 0 1440 810" height="810" version="1.0"><defs><clipPath id="d"><path d="M 0.160156 0.519531 L 63 0.519531 L 63 65.800781 L 0.160156 65.800781 Z M 0.160156 0.519531"/></clipPath><clipPath id="c"><path d="M0 0H64V66H0z"/></clipPath><clipPath id="g"><path d="M 13 16 L 87 16 L 87 109 L 13 109 Z M 13 16"/></clipPath><clipPath id="h"><path d="M 60.101562 -6.859375 L 120.171875 73.714844 L 56.433594 121.234375 L -3.632812 40.660156 Z M 60.101562 -6.859375"/></clipPath><clipPath id="i"><path d="M 60.101562 -6.859375 L 120.171875 73.714844 L 56.433594 121.234375 L -3.632812 40.660156 Z M 60.101562 -6.859375"/></clipPath><clipPath id="f"><path d="M0 0H114V119H0z"/></clipPath><clipPath id="l"><path d="M 1 0.359375 L 114 0.359375 L 114 107.878906 L 1 107.878906 Z M 1 0.359375"/></clipPath><clipPath id="k"><path d="M0 0H115V108H0z"/></clipPath><clipPath id="u"><path d="M 519.855469 184.597656 L 834.105469 184.597656 L 834.105469 588.847656 L 519.855469 588.847656 Z M 519.855469 184.597656"/></clipPath><g id="m"><path d="M 14.6875 26.4375 L 13.96875 24.859375 L 37.9375 -0.828125 C 39.25 -2.273438 40.429688 -3.492188 41.484375 -4.484375 L 36.78125 -3.0625 L 3.015625 6.59375 L 1.703125 3.734375 L 46.9375 -8.625 L 47.671875 -6.984375 L 22.6875 20.171875 C 21.550781 21.492188 20.429688 22.640625 19.328125 23.609375 C 19.816406 23.546875 21.4375 23.539062 24.1875 23.59375 L 61.8125 23.953125 L 62.546875 25.53125 L 23.375 51.125 L 22.03125 48.203125 L 51.640625 29.171875 C 53.484375 27.953125 54.910156 27.113281 55.921875 26.65625 C 55.867188 26.625 55.644531 26.613281 55.25 26.625 C 54.851562 26.644531 54.203125 26.664062 53.296875 26.6875 C 52.390625 26.707031 51.453125 26.734375 50.484375 26.765625 Z M 14.6875 26.4375"/></g><g id="n"><path d="M 16.28125 6.171875 L 0.875 3.6875 L 0.171875 0.75 L 44.96875 8.09375 L 45.375 9.78125 L 8.640625 36.546875 L 7.875 33.34375 L 20.546875 24.171875 Z M 40.515625 9.890625 C 38.484375 9.703125 36.789062 9.503906 35.4375 9.296875 L 18.96875 6.609375 L 22.734375 22.578125 L 36.21875 12.875 C 38.3125 11.363281 39.742188 10.367188 40.515625 9.890625 Z M 40.515625 9.890625"/></g><g id="o"><path d="M 0.921875 7.65625 L 42.265625 2.71875 L 42.609375 5.640625 L 1.265625 10.578125 Z M 0.921875 7.65625"/></g><g id="p"><path d="M 39.265625 14.5 L 39.03125 0.390625 L 41.65625 0.359375 L 42.15625 31.484375 L 39.53125 31.515625 L 39.3125 17.390625 L 0.296875 18.03125 L 0.25 15.140625 Z M 39.265625 14.5"/></g><g id="q"><path d="M -0.984375 7.640625 L 40.125 12.921875 C 39.957031 16.609375 39.710938 19.722656 39.390625 22.265625 C 38.890625 26.171875 37.46875 29.265625 35.125 31.546875 C 32.78125 33.835938 29.738281 34.742188 26 34.265625 C 23.5 33.941406 21.28125 32.921875 19.34375 31.203125 C 17.40625 29.492188 15.898438 27.640625 14.828125 25.640625 C 7.472656 29.835938 3.0625 32.445312 1.59375 33.46875 C -1.226562 35.5625 -2.988281 38.007812 -3.6875 40.8125 L -5.65625 40.484375 C -5.3125 38.117188 -4.710938 36.234375 -3.859375 34.828125 C -3.003906 33.429688 -1.695312 32.097656 0.0625 30.828125 C 1.820312 29.566406 6.453125 26.898438 13.953125 22.828125 C 14.390625 19.390625 14.925781 16.023438 15.5625 12.734375 L -1.359375 10.5625 Z M 16.578125 21.53125 C 16.367188 23.1875 17.242188 25.113281 19.203125 27.3125 C 21.171875 29.507812 23.617188 30.796875 26.546875 31.171875 C 29.472656 31.546875 31.828125 30.832031 33.609375 29.03125 C 35.390625 27.238281 36.484375 24.75 36.890625 21.5625 C 37.109375 19.875 37.28125 17.867188 37.40625 15.546875 L 18 13.046875 C 17.394531 16.066406 16.921875 18.894531 16.578125 21.53125 Z M 16.578125 21.53125"/></g><g id="r"><path d="M -2.046875 7.421875 L 38.09375 18.5 L 32.921875 37.234375 L 30.453125 36.546875 L 34.84375 20.65625 L 20.25 16.625 L 16.28125 30.984375 L 13.875 30.328125 L 17.84375 15.96875 L -0.234375 10.984375 L -4.796875 27.5 L -7.390625 26.78125 Z M -2.046875 7.421875"/></g><g id="s"><path d="M -7.625 17.8125 L -6.484375 15.15625 L 7.203125 21.015625 L 37.984375 17.078125 L 36.59375 20.328125 L 12.84375 23.34375 C 10.726562 23.476562 9.585938 23.578125 9.421875 23.640625 C 9.828125 24.097656 10.523438 24.984375 11.515625 26.296875 L 25.78125 45.578125 L 24.46875 48.65625 L 5.953125 23.625 Z M -7.625 17.8125"/></g><g id="t"><path d="M -3.78125 6.71875 L 32.515625 27.140625 L 31.078125 29.703125 L -5.21875 9.28125 Z M -3.78125 6.71875"/></g><mask id="b"><g filter="url(#a)"><path fill-opacity=".518" d="M-144 -81H1584V891H-144z"/></g></mask><mask id="e"><g filter="url(#a)"><path fill-opacity=".577" d="M-144 -81H1584V891H-144z"/></g></mask><mask id="j"><g filter="url(#a)"><path fill-opacity=".749" d="M-144 -81H1584V891H-144z"/></g></mask><filter x="0%" y="0%" width="100%" xmlns:xlink="http://www.w3.org/1999/xlink" xlink:type="simple" xlink:actuate="onLoad" height="100%" id="a" xlink:show="other"><feColorMatrix values="0 0 0 0 1 0 0 0 0 1 0 0 0 0 1 0 0 0 1 0" color-interpolation-filters="sRGB"/></filter></defs><path fill="#FFF" d="M-144 -81H1584V891H-144z"/><path fill="#FFF" d="M-144 -81H1584V891H-144z"/><path d="M-144 -81H1584V891H-144z"/><g mask="url(#b)"><g><g clip-path="url(#c)" transform="translate(680 275)"><g clip-path="url(#d)"><path fill="#B281FF" d="M 59.078125 15.003906 C 65.707031 30.015625 63.050781 45.40625 54.984375 53.691406 C 46.921875 61.980469 24.070312 78.257812 5.152344 48.648438 C -13.765625 19.042969 27.886719 -7.992188 46.59375 3.433594 C 58.164062 10.496094 59.078125 15.003906 59.078125 15.003906 Z M 59.078125 15.003906"/></g></g></g></g><g mask="url(#e)"><g><g clip-path="url(#f)" transform="translate(608 317)"><g clip-path="url(#g)"><g clip-path="url(#h)"><g clip-path="url(#i)"><path fill="#DFB15B" d="M 49.785156 16.433594 C 35.03125 15.988281 17.121094 25.199219 14.214844 42.953125 C 11.3125 60.707031 27.78125 74.296875 34.683594 87.414062 C 41.585938 100.535156 52.375 115.007812 70.882812 105.820312 C 89.402344 96.644531 88.214844 86.546875 84.757812 57.925781 C 81.300781 29.300781 78.101562 17.285156 49.785156 16.433594 Z M 49.785156 16.433594"/></g></g></g></g></g></g><g mask="url(#j)"><g><g clip-path="url(#k)" transform="translate(588 267)"><g clip-path="url(#l)"><path fill="#F85C70" d="M 110.863281 44.382812 C 111.257812 22.492188 79.058594 1.183594 59.210938 0.460938 C 46.71875 0.0078125 36.371094 6.824219 28.199219 15.269531 C 20.277344 23.464844 12.304688 32.21875 6.953125 42.359375 C 1.417969 52.851562 -1.398438 64.914062 3.769531 76.089844 C 8.207031 85.6875 16.792969 93.347656 25.972656 98.335938 C 45.652344 109.023438 71.835938 111.011719 92.535156 102.203125 C 103.445312 97.558594 111.238281 90.007812 113.476562 78.082031 C 115.578125 66.894531 110.660156 55.761719 110.863281 44.382812 Z M 110.863281 44.382812"/></g></g></g></g><g fill="#FFF"><use x="840.969" y="263.554" xmlns:xlink="http://www.w3.org/1999/xlink" xlink:href="#m" xlink:type="simple" xlink:actuate="onLoad" xlink:show="embed"/></g><g fill="#FFF"><use x="863.782" y="315.145" xmlns:xlink="http://www.w3.org/1999/xlink" xlink:href="#n" xlink:type="simple" xlink:actuate="onLoad" xlink:show="embed"/></g><g fill="#FFF"><use x="871.642" y="350.298" xmlns:xlink="http://www.w3.org/1999/xlink" xlink:href="#o" xlink:type="simple" xlink:actuate="onLoad" xlink:show="embed"/></g><g fill="#FFF"><use x="874.061" y="366.439" xmlns:xlink="http://www.w3.org/1999/xlink" xlink:href="#p" xlink:type="simple" xlink:actuate="onLoad" xlink:show="embed"/></g><g fill="#FFF"><use x="874.969" y="396.771" xmlns:xlink="http://www.w3.org/1999/xlink" xlink:href="#q" xlink:type="simple" xlink:actuate="onLoad" xlink:show="embed"/></g><g fill="#FFF"><use x="870.307" y="432.666" xmlns:xlink="http://www.w3.org/1999/xlink" xlink:href="#r" xlink:type="simple" xlink:actuate="onLoad" xlink:show="embed"/></g><g fill="#FFF"><use x="862.841" y="460.917" xmlns:xlink="http://www.w3.org/1999/xlink" xlink:href="#s" xlink:type="simple" xlink:actuate="onLoad" xlink:show="embed"/></g><g fill="#FFF"><use x="849.264" y="491.742" xmlns:xlink="http://www.w3.org/1999/xlink" xlink:href="#t" xlink:type="simple" xlink:actuate="onLoad" xlink:show="embed"/></g><g clip-path="url(#u)"><path fill="#FFF" d="M 905.472656 471.757812 C 889.160156 506.882812 863.050781 536.539062 830.65625 557.214844 C 799.28125 577.242188 762.007812 588.847656 722.03125 588.847656 C 673.835938 588.847656 629.582031 571.984375 594.84375 543.832031 L 594.796875 543.796875 C 589.316406 539.351562 584.074219 534.628906 579.089844 529.648438 C 542.507812 493.070312 519.882812 442.539062 519.882812 386.722656 C 519.882812 330.910156 542.511719 280.378906 579.089844 243.800781 C 615.671875 207.222656 666.207031 184.597656 722.03125 184.597656 C 771.402344 184.597656 816.632812 202.292969 851.738281 231.6875 C 887.414062 261.558594 912.632812 303.519531 921.082031 351.265625 L 919.871094 351.476562 C 911.476562 304.023438 886.414062 262.320312 850.953125 232.628906 C 816.0625 203.414062 771.101562 185.824219 722.035156 185.824219 C 666.550781 185.824219 616.320312 208.3125 579.960938 244.667969 C 543.601562 281.023438 521.113281 331.246094 521.113281 386.722656 C 521.113281 430.386719 535.046875 470.796875 558.707031 503.753906 C 560.746094 503.222656 562.863281 502.492188 566.125 498.554688 C 567.902344 496.40625 570.007812 493.332031 571.898438 488.976562 C 573.789062 484.605469 575.46875 478.9375 576.378906 471.617188 C 576.898438 467.4375 577.167969 462.738281 577.453125 457.769531 C 578.175781 445.121094 579 430.746094 584.246094 418.871094 C 587.882812 410.636719 593.625 403.65625 599.175781 396.914062 C 604.734375 390.15625 610.101562 383.636719 612.875 376.382812 C 613.5 374.746094 613.996094 373.078125 614.382812 371.378906 C 614.738281 369.8125 615.003906 368.214844 615.199219 366.582031 L 614.519531 366.273438 C 611.070312 364.667969 607.855469 362.714844 605.273438 360.457031 C 602.535156 358.0625 600.507812 355.335938 599.046875 352.433594 C 597.589844 349.539062 596.6875 346.46875 596.195312 343.382812 C 595.703125 340.304688 595.613281 337.210938 595.882812 334.046875 C 596.152344 330.886719 596.785156 327.644531 597.738281 324.257812 C 598.742188 320.683594 600.105469 316.945312 601.792969 313.441406 C 603.300781 310.3125 605.070312 307.371094 607.070312 304.902344 C 609.046875 302.46875 611.25 300.496094 613.515625 298.925781 C 615.394531 297.617188 617.324219 296.582031 619.210938 295.773438 C 619.316406 293.328125 619.433594 290.882812 619.746094 288.488281 C 620.078125 285.945312 620.628906 283.472656 621.613281 281.140625 C 622.496094 279.0625 623.71875 277.101562 625.039062 275.386719 C 626.679688 273.257812 628.472656 271.484375 629.945312 270.304688 C 632.507812 268.25 634.113281 267.941406 635.65625 267.644531 L 636.3125 267.515625 C 637.230469 267.332031 638.191406 267.140625 639.476562 267.121094 C 644.90625 261.183594 651.050781 256.023438 657.425781 251.808594 C 664.195312 247.332031 671.234375 243.914062 677.96875 241.753906 C 682.980469 240.144531 687.824219 239.234375 692.59375 238.886719 C 701.867188 238.234375 711.144531 237.582031 723.898438 239.664062 C 730.789062 240.789062 738.691406 242.710938 746.527344 245.519531 C 753.191406 247.902344 759.824219 250.933594 765.765625 254.660156 C 771.878906 258.496094 777.253906 263.0625 781.699219 267.792969 C 786.671875 273.089844 790.488281 278.601562 792.867188 283.523438 C 795.132812 288.210938 796.097656 292.367188 796.476562 295.523438 C 796.855469 298.691406 796.648438 300.867188 796.566406 301.5625 C 796.496094 302.144531 796.289062 302.394531 795.867188 302.359375 L 795.816406 302.351562 C 795.300781 302.265625 795.292969 301.894531 795.292969 301.261719 C 795.292969 300.210938 795.296875 297.605469 794.835938 295.742188 C 794.644531 294.984375 794.378906 294.347656 794.074219 293.84375 C 793.761719 293.320312 793.410156 292.941406 793.074219 292.714844 C 792.820312 292.542969 792.601562 292.472656 792.453125 292.507812 L 792.40625 292.53125 C 792.222656 292.636719 792.050781 293.054688 791.882812 293.453125 C 791.808594 293.636719 791.734375 293.816406 791.644531 293.996094 C 791.375 294.539062 791.054688 294.957031 790.558594 295.011719 C 792.605469 298.175781 794.160156 300.992188 795.140625 303.800781 C 796.632812 308.074219 796.769531 312.25 796.914062 316.699219 C 796.941406 317.566406 796.972656 318.445312 797.011719 319.371094 C 797.054688 320.402344 797.117188 321.496094 797.183594 322.59375 C 797.441406 327.089844 797.703125 331.6875 796.917969 335.550781 C 796.40625 338.078125 795.457031 340.242188 794.515625 342.382812 C 793.679688 344.285156 792.851562 346.171875 792.367188 348.253906 C 791.863281 350.429688 791.726562 352.84375 791.953125 355.335938 C 792.175781 357.828125 792.765625 360.402344 793.699219 362.898438 C 795.332031 367.253906 798.050781 371.410156 800.242188 374.761719 L 801.222656 376.265625 C 802.394531 378.082031 803.304688 379.601562 803.910156 380.929688 C 804.539062 382.320312 804.835938 383.515625 804.75 384.621094 C 804.65625 385.757812 804.164062 386.769531 803.382812 387.675781 C 802.636719 388.539062 801.625 389.300781 800.453125 389.972656 C 799.363281 390.59375 798.113281 391.148438 797.035156 391.535156 C 795.785156 391.988281 794.703125 392.21875 794.253906 392.109375 C 793.6875 391.964844 793.546875 391.617188 793.667969 391.121094 C 793.734375 390.847656 793.933594 390.566406 794.152344 390.246094 C 794.398438 389.890625 794.691406 389.460938 794.671875 389.253906 L 794.664062 389.230469 C 794.621094 389.132812 794.472656 389.035156 794.253906 388.957031 C 793.945312 388.84375 793.539062 388.796875 793.089844 388.839844 C 792.808594 388.863281 792.511719 388.921875 792.210938 389.019531 C 791.695312 391.078125 791.222656 393.121094 791.574219 394.777344 C 791.800781 395.847656 792.398438 396.835938 792.914062 397.6875 C 793.25 398.246094 793.558594 398.753906 793.742188 399.234375 C 793.960938 399.816406 793.992188 400.351562 793.902344 400.753906 C 793.847656 401.007812 793.738281 401.222656 793.597656 401.386719 C 793.414062 401.597656 793.175781 401.722656 792.90625 401.742188 C 792.683594 401.757812 792.457031 401.699219 792.238281 401.5625 C 792.050781 401.441406 791.898438 401.277344 791.726562 401.097656 C 791.332031 400.675781 790.761719 400.070312 789.5625 400.539062 C 788.65625 400.898438 787.386719 401.789062 785.890625 402.84375 C 784.207031 404.03125 782.234375 405.421875 780.085938 406.539062 C 778.101562 407.566406 775.980469 408.363281 774.414062 408.941406 C 776.351562 408.859375 779.199219 408.648438 781.773438 408.457031 L 784.699219 408.242188 C 786.546875 408.109375 787.96875 408.007812 789.109375 407.804688 C 789.363281 407.269531 789.652344 406.742188 789.976562 406.226562 L 790.34375 405.671875 C 791.078125 404.613281 791.925781 403.652344 792.65625 402.996094 C 793.5625 402.179688 794.417969 401.804688 794.921875 402.121094 L 794.949219 402.140625 C 795.011719 402.183594 795.070312 402.234375 795.117188 402.289062 C 795.40625 402.640625 795.390625 403.292969 795.128906 404.050781 C 794.917969 404.652344 794.554688 405.378906 794.082031 406.058594 C 793.695312 406.617188 793.234375 407.152344 792.722656 407.582031 C 791.933594 408.238281 791.0625 408.625 789.96875 408.882812 C 789.78125 409.328125 789.621094 409.773438 789.492188 410.214844 C 789.410156 410.507812 789.339844 410.792969 789.28125 411.078125 C 789.875 411.433594 790.332031 411.855469 790.675781 412.34375 C 790.800781 412.519531 790.910156 412.699219 790.996094 412.878906 C 791.390625 413.671875 791.527344 414.554688 791.492188 415.289062 C 791.449219 416.109375 791.167969 416.808594 790.753906 417.105469 C 790.710938 417.136719 790.660156 417.167969 790.609375 417.191406 C 790.488281 417.253906 790.363281 417.289062 790.234375 417.300781 C 789.878906 417.328125 789.527344 417.171875 789.210938 416.863281 C 788.972656 416.636719 788.738281 416.308594 788.539062 415.90625 C 788.21875 415.261719 787.964844 414.410156 787.890625 413.464844 C 787.847656 412.929688 787.863281 412.359375 787.933594 411.769531 C 787.753906 411.695312 787.5625 411.625 787.359375 411.558594 C 786.140625 411.164062 784.484375 410.914062 782.289062 410.796875 C 780.492188 410.703125 778.355469 410.695312 776.292969 410.730469 C 773.90625 410.773438 771.605469 410.875 770.0625 410.964844 C 770.507812 411.21875 771 411.539062 771.5 411.945312 C 772.359375 412.65625 773.195312 413.59375 774.082031 414.585938 C 775.550781 416.238281 777.175781 418.0625 779.167969 419.09375 C 780.425781 419.746094 781.855469 420.101562 783.210938 420.25 C 783.480469 419.855469 783.789062 419.515625 784.121094 419.238281 C 785.066406 418.449219 786.210938 418.125 787.199219 418.148438 C 787.976562 418.167969 788.6875 418.410156 789.109375 418.746094 C 789.332031 418.925781 789.5 419.136719 789.582031 419.371094 C 789.679688 419.660156 789.664062 419.957031 789.503906 420.246094 C 789.335938 420.550781 788.996094 420.832031 788.445312 421.046875 C 787.523438 421.40625 785.808594 421.652344 783.894531 421.535156 C 783.773438 421.800781 783.671875 422.09375 783.59375 422.417969 C 783.273438 423.710938 783.316406 425.492188 783.355469 427.394531 C 783.394531 429.164062 783.4375 431.039062 783.207031 432.800781 C 782.949219 434.746094 782.359375 436.539062 781.390625 438.097656 C 780.46875 439.582031 779.207031 440.859375 777.574219 441.859375 C 775.804688 442.945312 773.585938 443.714844 770.953125 443.929688 C 768.65625 444.121094 766.027344 443.890625 763.089844 443.082031 C 761.996094 442.78125 760.855469 442.398438 759.691406 441.960938 C 758.964844 453.707031 758.390625 465.4375 764.789062 476.730469 C 767.714844 481.894531 772.121094 487.019531 776.675781 492.3125 C 782.398438 498.957031 788.351562 505.878906 792.003906 513.59375 C 796.660156 523.433594 797.527344 534.460938 798.234375 543.464844 C 798.527344 547.171875 798.792969 550.535156 799.285156 553.304688 C 800.105469 557.941406 801.570312 560.933594 803.359375 563.09375 C 805.066406 565.164062 807.09375 566.503906 809.136719 567.816406 C 816.34375 564.34375 823.3125 560.457031 830.007812 556.183594 C 862.203125 535.632812 888.15625 506.15625 904.371094 471.242188 L 905.480469 471.757812 Z M 722.03125 587.621094 C 729.933594 587.621094 737.726562 587.164062 745.390625 586.277344 C 741.472656 583.820312 737.539062 581.273438 733.445312 577.898438 C 728.835938 574.101562 724.050781 569.277344 718.914062 562.398438 C 713.121094 554.648438 706.871094 544.269531 702.933594 532.992188 C 699.882812 524.25 698.226562 514.964844 699.246094 505.929688 C 700.746094 492.644531 708.019531 479.980469 714.691406 468.367188 C 718.378906 461.949219 721.882812 455.851562 724.097656 450.171875 C 727.167969 442.300781 727.757812 435.214844 726.929688 428.335938 C 726.097656 421.433594 723.824219 414.707031 721.191406 407.601562 C 720.5 405.738281 719.832031 403.964844 719.15625 402.183594 C 714.300781 389.363281 709.199219 375.890625 710.050781 365.359375 C 710.085938 364.871094 710.140625 364.390625 710.203125 363.917969 C 709.449219 367.273438 708.3125 371.285156 706.148438 377.046875 C 705.640625 378.398438 705.082031 379.835938 704.492188 381.351562 C 700.636719 391.242188 695.398438 404.679688 695.347656 418.214844 C 695.324219 423.820312 696.195312 429.492188 697.070312 435.203125 C 698.644531 445.464844 700.238281 455.847656 696.773438 466.457031 C 694.113281 474.589844 688.496094 482.777344 682.652344 491.292969 C 676.675781 500.007812 670.449219 509.078125 666.988281 518.710938 C 660.203125 537.574219 663.894531 558.867188 667.652344 580.171875 C 684.949219 585.023438 703.191406 587.621094 722.039062 587.621094 Z M 747.328125 586.042969 C 757.230469 584.800781 766.914062 582.835938 776.316406 580.203125 C 766.929688 575.105469 757.808594 569.824219 754.617188 560.511719 C 752.5 554.339844 753.039062 546.5 753.585938 538.605469 C 753.890625 534.128906 754.203125 529.628906 754.027344 525.453125 C 753.863281 521.675781 753.304688 518.136719 752.472656 514.800781 C 746.683594 511.625 740.871094 508.425781 733.171875 503.648438 C 729.257812 501.21875 724.875 498.390625 720.253906 495.367188 C 715.898438 492.515625 711.199219 489.398438 706.488281 486.269531 C 703.527344 492.683594 701.222656 499.308594 700.460938 506.0625 C 699.460938 514.902344 701.09375 524.007812 704.085938 532.585938 C 707.972656 543.726562 714.160156 553.988281 719.894531 561.660156 C 724.96875 568.457031 729.6875 573.214844 734.21875 576.949219 C 738.6875 580.632812 743.007812 583.34375 747.324219 586.042969 Z M 778.003906 579.722656 C 788.3125 576.738281 798.28125 572.953125 807.835938 568.433594 C 805.925781 567.195312 804.050781 565.863281 802.40625 563.875 C 800.496094 561.566406 798.933594 558.398438 798.070312 553.515625 C 797.566406 550.691406 797.300781 547.300781 797.007812 543.5625 C 796.308594 534.65625 795.449219 523.753906 790.890625 514.121094 C 787.308594 506.550781 781.40625 499.695312 775.742188 493.109375 C 771.148438 487.769531 766.703125 482.605469 763.71875 477.335938 C 757.070312 465.601562 757.734375 453.550781 758.488281 441.496094 C 754.839844 440.023438 751.039062 438.078125 747.664062 436.351562 C 746.410156 435.707031 745.210938 435.09375 744.023438 434.507812 C 742.304688 433.664062 740.8125 432.984375 739.507812 432.464844 C 738.453125 439.480469 737.417969 446.484375 736.765625 452.984375 C 736.09375 459.714844 735.835938 465.957031 736.390625 471.203125 C 737.351562 480.21875 740.753906 486.367188 744.414062 492.976562 C 745.007812 494.042969 745.601562 495.121094 746.191406 496.210938 C 748.355469 500.238281 750.496094 504.605469 752.152344 509.425781 C 753.816406 514.257812 755 519.550781 755.246094 525.402344 C 755.429688 529.65625 755.117188 534.183594 754.804688 538.683594 C 754.269531 546.457031 753.738281 554.171875 755.773438 560.109375 C 758.9375 569.339844 768.449219 574.546875 778 579.722656 Z M 579.960938 528.777344 C 582.929688 531.75 585.996094 534.628906 589.152344 537.410156 C 588.511719 536.292969 587.90625 534.996094 587.351562 533.453125 C 586.207031 530.289062 585.257812 526.074219 585.085938 520.9375 C 584.953125 516.835938 585.304688 512.148438 586.449219 506.933594 C 587.765625 500.925781 590.132812 494.203125 593.457031 487.25 C 596.601562 480.675781 600.605469 473.890625 605.394531 467.316406 C 607.917969 463.847656 610.679688 460.410156 613.464844 456.949219 C 621.386719 447.101562 629.492188 437.019531 633.125 424.773438 C 636.300781 414.0625 636.09375 401.605469 635.875 388.445312 L 635.796875 383.40625 C 635.238281 383.195312 634.722656 382.90625 634.246094 382.558594 C 633.015625 381.667969 632.058594 380.378906 631.363281 378.957031 C 630.15625 376.503906 629.722656 373.679688 629.324219 370.839844 C 628.34375 370.679688 627.34375 370.488281 626.324219 370.261719 C 623.074219 369.539062 619.648438 368.46875 616.371094 367.09375 C 616.175781 368.632812 615.914062 370.15625 615.574219 371.648438 C 615.171875 373.414062 614.664062 375.140625 614.019531 376.820312 C 611.175781 384.257812 605.746094 390.855469 600.117188 397.695312 C 594.625 404.371094 588.9375 411.28125 585.367188 419.367188 C 580.207031 431.042969 579.390625 445.296875 578.671875 457.839844 C 578.386719 462.84375 578.113281 467.582031 577.59375 471.769531 C 576.667969 479.207031 574.957031 484.988281 573.015625 489.460938 C 571.070312 493.953125 568.898438 497.125 567.066406 499.335938 C 563.792969 503.289062 561.566406 504.238281 559.472656 504.816406 C 565.671875 513.332031 572.527344 521.347656 579.960938 528.777344 Z M 595.472656 542.761719 C 604.945312 550.449219 615.128906 557.292969 625.910156 563.179688 C 623.203125 551.332031 620.601562 539.433594 620.941406 526.066406 C 621.128906 518.699219 622.214844 510.894531 624.496094 503.253906 C 626.519531 496.488281 629.484375 489.835938 633.605469 483.714844 C 638.015625 477.160156 643.730469 471.238281 649.269531 465.496094 C 654.691406 459.878906 659.945312 454.433594 663.597656 448.785156 C 667.257812 443.117188 669.328125 437.207031 670.417969 430.832031 C 671.515625 424.425781 671.636719 417.542969 671.398438 409.964844 C 671.324219 407.628906 671.214844 405.191406 671.105469 402.699219 C 670.527344 389.792969 669.886719 375.425781 673.660156 361.339844 L 673.523438 361.558594 C 673.09375 362.253906 672.664062 362.949219 671.589844 362.582031 C 671.105469 362.417969 670.566406 361.984375 669.882812 361.441406 C 669.023438 360.757812 667.921875 359.878906 666.582031 359.25 C 665.996094 358.976562 665.355469 358.746094 664.683594 358.546875 C 664.28125 360.121094 663.859375 361.695312 663.261719 363.300781 C 662.585938 365.113281 661.695312 366.933594 660.378906 368.75 C 659.167969 370.429688 657.589844 372.113281 655.835938 373.71875 C 653.828125 375.558594 651.585938 377.296875 649.394531 378.816406 C 647.34375 380.238281 645.328125 381.476562 643.441406 382.363281 C 641.515625 383.265625 639.714844 383.8125 638.140625 383.816406 C 637.753906 383.820312 637.382812 383.789062 637.023438 383.730469 L 637.097656 388.421875 C 637.316406 401.683594 637.527344 414.234375 634.296875 425.117188 C 630.59375 437.597656 622.410156 447.773438 614.414062 457.714844 C 611.65625 461.148438 608.917969 464.554688 606.382812 468.035156 C 601.636719 474.546875 597.671875 481.265625 594.554688 487.773438 C 591.277344 494.628906 588.941406 501.261719 587.640625 507.1875 C 586.519531 512.308594 586.171875 516.898438 586.304688 520.894531 C 586.472656 525.886719 587.390625 529.972656 588.496094 533.035156 C 589.480469 535.765625 590.617188 537.675781 591.824219 539.175781 C 592.980469 540.613281 594.222656 541.695312 595.46875 542.757812 Z M 627.34375 563.953125 C 639.632812 570.53125 652.6875 575.867188 666.335938 579.796875 C 662.589844 558.535156 659 537.300781 665.832031 518.300781 C 669.351562 508.507812 675.617188 499.375 681.636719 490.601562 C 687.429688 482.15625 692.996094 474.042969 695.601562 466.078125 C 698.980469 455.746094 697.40625 445.507812 695.855469 435.382812 C 694.972656 429.640625 694.097656 423.933594 694.117188 418.214844 C 694.171875 404.445312 699.457031 390.886719 703.34375 380.910156 C 703.9375 379.382812 704.5 377.945312 705 376.613281 C 708.371094 367.636719 709.21875 362.964844 710.050781 358.367188 L 710.355469 356.6875 C 710.847656 354.039062 711.4375 351.253906 712.53125 348.328125 C 712.683594 347.917969 712.847656 347.507812 713.023438 347.09375 C 712.386719 348.003906 711.601562 348.875 710.703125 349.6875 C 709.304688 350.949219 707.628906 352.066406 705.808594 352.96875 C 704.085938 353.820312 702.234375 354.480469 700.390625 354.953125 C 698.402344 355.460938 696.414062 355.753906 694.597656 355.835938 C 692.847656 355.917969 691.265625 355.800781 689.804688 355.554688 C 688.347656 355.304688 687.007812 354.925781 685.742188 354.484375 C 684.484375 354.042969 683.300781 353.539062 682.152344 353 C 681.238281 352.574219 680.355469 352.128906 679.476562 351.679688 L 679.316406 352.277344 C 679.074219 353.222656 678.894531 354.128906 678.730469 354.945312 C 678.546875 355.867188 678.382812 356.675781 678.148438 357.425781 C 677.917969 358.171875 677.617188 358.839844 677.261719 359.371094 C 676.894531 359.921875 676.464844 360.339844 675.988281 360.578125 C 675.675781 360.730469 675.367188 360.800781 675.070312 360.839844 C 671.089844 375.011719 671.742188 389.585938 672.328125 402.652344 C 672.4375 405.125 672.546875 407.546875 672.621094 409.929688 C 672.859375 417.585938 672.742188 424.546875 671.625 431.042969 C 670.507812 437.574219 668.382812 443.632812 664.628906 449.449219 C 660.914062 455.199219 655.617188 460.6875 650.152344 466.347656 C 644.648438 472.054688 638.96875 477.9375 634.621094 484.402344 C 630.578125 490.410156 627.664062 496.945312 625.671875 503.605469 C 623.417969 511.148438 622.347656 518.839844 622.164062 526.097656 C 621.816406 539.695312 624.570312 551.832031 627.34375 563.953125 Z M 676.167969 342.171875 C 675.433594 342.695312 674.703125 343.210938 673.984375 343.6875 C 673.171875 344.222656 672.367188 344.714844 671.578125 345.105469 C 670.777344 345.503906 669.988281 345.800781 669.28125 345.972656 C 668.546875 346.152344 667.882812 346.195312 667.367188 346.082031 C 667.125 346.027344 666.902344 345.941406 666.714844 345.816406 C 666.441406 345.636719 666.242188 345.394531 666.132812 345.097656 C 666.027344 344.816406 666.011719 344.496094 666.085938 344.148438 C 666.152344 343.832031 666.304688 343.476562 666.550781 343.101562 C 666.980469 342.449219 667.726562 341.679688 668.574219 341.058594 C 669.316406 340.515625 670.152344 340.070312 670.945312 339.902344 C 672.171875 339.640625 673.191406 340.011719 674.242188 340.398438 C 674.648438 340.546875 675.0625 340.695312 675.480469 340.804688 C 676.164062 340.976562 676.898438 341.039062 677.589844 340.984375 C 678.246094 340.933594 678.859375 340.777344 679.351562 340.519531 C 679.472656 340.457031 679.585938 340.382812 679.691406 340.308594 C 679.546875 339.628906 679.53125 339.074219 679.621094 338.65625 C 679.71875 338.210938 679.9375 337.886719 680.210938 337.691406 C 680.417969 337.546875 680.652344 337.476562 680.898438 337.484375 L 681.050781 337.5 C 681.078125 337.078125 681.0625 336.636719 681.011719 336.183594 C 680.929688 335.480469 680.761719 334.746094 680.542969 334.015625 C 680.335938 333.332031 680.082031 332.652344 679.765625 332.015625 C 679.460938 331.386719 679.09375 330.796875 678.664062 330.269531 C 678.238281 329.742188 677.738281 329.273438 677.160156 328.832031 C 676.570312 328.382812 675.898438 327.960938 675.144531 327.539062 C 674.347656 327.097656 673.449219 326.652344 672.503906 326.246094 C 671.660156 325.878906 670.785156 325.554688 669.941406 325.300781 C 669.050781 325.03125 668.1875 324.84375 667.378906 324.738281 C 666.585938 324.632812 665.828125 324.605469 665.140625 324.664062 C 664.511719 324.714844 663.953125 324.832031 663.613281 325.015625 C 663.53125 325.058594 663.464844 325.105469 663.429688 325.148438 L 663.445312 325.179688 C 663.648438 325.558594 664.46875 326.160156 665.320312 326.78125 C 665.90625 327.210938 666.507812 327.648438 666.988281 328.082031 C 667.640625 328.671875 668.0625 329.242188 668.328125 329.839844 C 668.59375 330.441406 668.699219 331.046875 668.730469 331.71875 C 668.757812 332.355469 668.71875 333.046875 668.632812 333.777344 C 668.546875 334.5 668.417969 335.265625 668.261719 336.054688 L 667.691406 338.8125 L 667.707031 338.898438 C 667.800781 339.535156 667.738281 340.007812 667.652344 340.242188 C 667.589844 340.421875 667.480469 340.558594 667.355469 340.644531 C 666.988281 340.882812 666.671875 340.816406 666.441406 340.421875 C 666.359375 340.289062 666.308594 340.074219 666.316406 339.792969 C 666.324219 339.550781 666.375 339.214844 666.449219 338.8125 C 666.339844 338.277344 666.128906 337.625 665.839844 337.070312 C 665.617188 336.636719 665.359375 336.285156 665.109375 336.179688 C 664.691406 336.003906 663.9375 336.578125 663.265625 337.097656 L 662.75 337.480469 C 662.246094 337.84375 661.789062 338.085938 661.332031 338.242188 C 660.871094 338.402344 660.421875 338.472656 659.933594 338.484375 C 659.617188 338.492188 659.300781 338.476562 658.988281 338.457031 C 658.453125 338.433594 657.917969 338.40625 657.574219 338.507812 C 657.511719 338.523438 657.453125 338.546875 657.40625 338.574219 C 657.308594 338.628906 657.238281 338.691406 657.203125 338.761719 C 657.1875 338.796875 657.179688 338.835938 657.191406 338.875 L 657.210938 338.925781 C 657.316406 339.117188 657.632812 339.371094 657.972656 339.636719 C 658.289062 339.886719 658.621094 340.152344 658.894531 340.449219 C 659.230469 340.816406 659.472656 341.226562 659.613281 341.613281 C 659.78125 342.070312 659.816406 342.523438 659.71875 342.890625 L 659.671875 343.046875 C 659.535156 343.394531 659.277344 343.648438 658.925781 343.78125 C 658.625 343.894531 658.261719 343.910156 657.855469 343.800781 L 657.566406 343.703125 C 657.148438 343.542969 656.679688 343.25 656.175781 342.875 C 655.703125 342.519531 655.183594 342.074219 654.632812 341.578125 C 654.089844 341.089844 653.515625 340.546875 652.933594 339.9375 C 652.351562 339.324219 651.765625 338.644531 651.207031 337.902344 C 650.636719 337.136719 650.085938 336.285156 649.621094 335.433594 C 649.476562 335.171875 649.34375 334.910156 649.21875 334.652344 L 649.074219 334.855469 C 648.679688 335.421875 648.25 336.03125 647.792969 336.746094 C 647.3125 337.496094 646.832031 338.316406 646.429688 339.15625 C 646.035156 339.976562 645.722656 340.816406 645.558594 341.617188 C 645.402344 342.394531 645.390625 343.144531 645.546875 343.925781 C 645.710938 344.71875 646.058594 345.554688 646.617188 346.488281 C 647.230469 347.507812 648.09375 348.636719 648.984375 349.539062 C 649.726562 350.289062 650.464844 350.867188 651.054688 351.058594 C 651.855469 351.316406 652.5 350.664062 653.082031 350.070312 C 653.277344 349.871094 653.476562 349.671875 653.691406 349.488281 C 654.328125 348.945312 654.9375 348.71875 655.601562 348.480469 C 655.941406 348.355469 656.296875 348.226562 656.660156 348.042969 C 657.132812 347.804688 657.65625 347.460938 658.144531 347.140625 C 658.75 346.746094 659.304688 346.382812 659.738281 346.230469 C 660.410156 345.992188 660.847656 346.175781 661.125 346.609375 C 661.320312 346.910156 661.375 347.324219 661.367188 347.777344 C 661.359375 348.167969 661.3125 348.609375 661.179688 349.054688 C 661.042969 349.515625 660.820312 349.988281 660.46875 350.425781 C 660.125 350.855469 659.660156 351.246094 659.058594 351.59375 C 658.488281 351.925781 657.78125 352.222656 656.929688 352.46875 C 656.351562 352.636719 655.742188 352.777344 655.140625 352.914062 C 654.015625 353.171875 652.90625 353.421875 652.375 353.761719 C 652.246094 353.84375 652.160156 353.921875 652.121094 353.996094 C 652.101562 354.023438 652.097656 354.058594 652.097656 354.085938 C 652.101562 354.128906 652.125 354.183594 652.160156 354.246094 C 652.28125 354.433594 652.519531 354.628906 652.863281 354.8125 C 653.402344 355.101562 654.167969 355.335938 655.117188 355.546875 C 656.089844 355.761719 657.269531 355.953125 658.597656 356.148438 L 659.199219 356.238281 C 661.777344 356.613281 664.769531 357.050781 667.097656 358.144531 C 668.578125 358.832031 669.738281 359.761719 670.644531 360.480469 C 671.230469 360.949219 671.703125 361.324219 671.980469 361.421875 C 672.132812 361.472656 672.304688 361.195312 672.476562 360.917969 C 672.652344 360.636719 672.824219 360.351562 673.082031 360.136719 C 673.53125 359.757812 674.023438 359.710938 674.546875 359.664062 C 674.855469 359.632812 675.183594 359.601562 675.441406 359.476562 C 675.71875 359.339844 675.988281 359.0625 676.238281 358.691406 C 676.527344 358.253906 676.777344 357.695312 676.976562 357.058594 C 677.1875 356.382812 677.34375 355.59375 677.523438 354.703125 C 677.683594 353.90625 677.859375 353.019531 678.128906 351.96875 C 678.417969 350.847656 678.792969 349.632812 679.179688 348.375 C 679.535156 347.21875 679.902344 346.023438 680.226562 344.820312 C 680.394531 344.183594 680.550781 343.5625 680.683594 342.964844 C 680.425781 342.445312 680.21875 341.964844 680.054688 341.523438 L 679.917969 341.597656 C 679.273438 341.933594 678.496094 342.136719 677.683594 342.199219 C 677.183594 342.238281 676.671875 342.226562 676.164062 342.167969 Z M 673.308594 342.664062 C 673.726562 342.390625 674.144531 342.101562 674.5625 341.808594 L 673.828125 341.546875 C 672.941406 341.222656 672.082031 340.910156 671.199219 341.101562 C 670.589844 341.230469 669.914062 341.59375 669.296875 342.042969 C 668.566406 342.578125 667.933594 343.230469 667.578125 343.773438 C 667.417969 344.015625 667.320312 344.230469 667.285156 344.40625 C 667.257812 344.523438 667.261719 344.613281 667.285156 344.675781 C 667.300781 344.722656 667.332031 344.761719 667.382812 344.792969 C 667.441406 344.832031 667.523438 344.863281 667.625 344.882812 C 667.964844 344.957031 668.441406 344.917969 668.996094 344.785156 C 669.609375 344.632812 670.3125 344.371094 671.039062 344.007812 C 671.773438 343.644531 672.539062 343.179688 673.3125 342.667969 Z M 682.214844 338.136719 L 682.140625 338.542969 C 682.179688 338.65625 682.214844 338.773438 682.242188 338.902344 C 682.382812 339.527344 682.355469 340.398438 682.21875 341.40625 C 682.15625 341.84375 682.074219 342.3125 681.972656 342.800781 C 682.21875 343.269531 682.507812 343.769531 682.84375 344.300781 C 683.710938 345.683594 684.882812 347.269531 686.339844 348.429688 C 687.746094 349.554688 689.429688 350.285156 691.367188 350.042969 C 693.28125 349.804688 695.484375 348.628906 697.730469 346.859375 C 700.238281 344.882812 702.785156 342.164062 705.046875 339.167969 C 707.277344 336.214844 709.226562 333 710.722656 329.722656 C 712.136719 326.632812 713.144531 323.484375 713.601562 320.460938 C 714.269531 316.066406 713.769531 311.894531 713.371094 308.597656 C 713.207031 307.222656 713.058594 305.996094 713.019531 304.921875 C 712.949219 303.027344 713.230469 301.769531 713.464844 300.726562 C 713.660156 299.847656 713.820312 299.132812 713.660156 298.324219 C 713.484375 297.429688 712.929688 296.355469 712.035156 295.210938 C 711.160156 294.085938 709.960938 292.898438 708.476562 291.742188 C 706.941406 290.550781 705.097656 289.394531 703.015625 288.25 C 700.914062 287.097656 698.566406 285.949219 696.03125 284.78125 C 693.496094 283.617188 690.773438 282.421875 688.054688 281.394531 C 685.347656 280.375 682.644531 279.511719 680.148438 279.003906 C 677.667969 278.496094 675.375 278.332031 673.179688 278.425781 C 670.980469 278.515625 668.871094 278.867188 666.757812 279.382812 C 664.535156 279.925781 662.3125 280.652344 660.328125 281.539062 C 658.554688 282.335938 656.972656 283.257812 655.761719 284.285156 C 654.523438 285.335938 653.679688 286.503906 653.195312 287.792969 C 652.707031 289.089844 652.578125 290.53125 652.761719 292.125 C 652.953125 293.757812 653.480469 295.5625 654.167969 297.382812 C 654.863281 299.230469 655.71875 301.09375 656.558594 302.828125 L 657.289062 304.316406 C 658.722656 307.234375 659.984375 309.789062 660.296875 312.160156 C 660.484375 313.570312 660.332031 314.886719 660.039062 316.0625 C 659.753906 317.222656 659.332031 318.234375 658.976562 319.078125 L 658.785156 319.519531 C 658.253906 320.761719 657.925781 321.535156 658.03125 321.851562 C 658.082031 322 658.363281 322.171875 658.695312 322.375 C 659.007812 322.566406 659.359375 322.78125 659.71875 323.097656 C 660.191406 323.515625 660.632812 324.085938 660.9375 324.753906 C 661.207031 325.335938 661.375 326 661.367188 326.703125 C 661.355469 327.53125 661.109375 328.347656 660.863281 329.164062 C 660.695312 329.738281 660.523438 330.3125 660.453125 330.828125 C 660.390625 331.257812 660.394531 331.695312 660.398438 332.078125 C 660.398438 333.03125 660.40625 333.777344 659.671875 334.15625 C 659.195312 334.402344 658.441406 334.339844 657.636719 334.027344 C 656.953125 333.761719 656.183594 333.308594 655.511719 332.722656 C 654.847656 332.148438 654.269531 331.441406 653.792969 330.671875 C 653.289062 329.859375 652.894531 328.972656 652.628906 328.09375 C 652.476562 327.589844 652.371094 327.105469 652.269531 326.640625 C 652.046875 325.628906 651.84375 324.695312 651.265625 324.09375 C 650.832031 323.640625 650.113281 323.28125 649.308594 322.878906 C 648.476562 322.464844 647.558594 322.003906 646.65625 321.304688 C 645.726562 320.585938 644.855469 319.632812 644.058594 318.460938 C 643.28125 317.320312 642.570312 315.964844 641.945312 314.410156 C 641.238281 312.664062 640.648438 310.679688 640.035156 308.636719 C 639.5625 307.0625 639.078125 305.449219 638.539062 303.910156 C 637.921875 302.160156 637.222656 300.484375 636.328125 299.070312 C 635.464844 297.691406 634.410156 296.550781 633.070312 295.828125 C 631.746094 295.113281 630.121094 294.789062 628.277344 294.820312 C 626.335938 294.855469 624.15625 295.289062 621.835938 296.082031 C 619.367188 296.921875 616.746094 298.175781 614.214844 299.933594 C 612.03125 301.449219 609.914062 303.339844 608.019531 305.675781 C 606.082031 308.066406 604.363281 310.925781 602.894531 313.976562 C 601.242188 317.40625 599.902344 321.078125 598.914062 324.589844 C 597.984375 327.898438 597.367188 331.066406 597.101562 334.148438 C 596.839844 337.230469 596.925781 340.222656 597.402344 343.191406 C 597.875 346.15625 598.742188 349.105469 600.140625 351.882812 C 601.535156 354.65625 603.464844 357.257812 606.078125 359.539062 C 608.566406 361.714844 611.679688 363.605469 615.03125 365.164062 C 618.773438 366.902344 622.804688 368.226562 626.589844 369.066406 C 630.03125 369.832031 633.277344 370.199219 636.148438 370.242188 C 639.25 370.285156 641.921875 369.953125 643.953125 369.332031 C 645.847656 368.757812 647.171875 367.933594 648.070312 366.933594 C 648.957031 365.945312 649.441406 364.761719 649.65625 363.453125 C 649.882812 362.101562 649.820312 360.613281 649.621094 359.144531 C 649.414062 357.65625 649.058594 356.191406 648.703125 354.910156 C 648.347656 353.628906 647.980469 352.527344 647.617188 351.519531 C 647.25 350.507812 646.878906 349.589844 646.511719 348.671875 L 646.601562 348.636719 C 646.21875 348.128906 645.867188 347.609375 645.570312 347.117188 C 644.9375 346.0625 644.542969 345.101562 644.351562 344.171875 C 644.15625 343.226562 644.171875 342.316406 644.359375 341.378906 C 644.546875 340.46875 644.894531 339.535156 645.328125 338.628906 C 645.75 337.746094 646.253906 336.878906 646.761719 336.085938 C 647.191406 335.421875 647.648438 334.765625 648.074219 334.15625 L 648.652344 333.324219 L 648.5625 333.066406 C 648.3125 332.304688 648.191406 331.609375 648.179688 331.03125 C 648.167969 330.328125 648.320312 329.761719 648.605469 329.40625 C 648.738281 329.238281 648.898438 329.113281 649.074219 329.03125 C 649.328125 328.914062 649.605469 328.882812 649.867188 328.929688 C 650.117188 328.96875 650.359375 329.082031 650.5625 329.246094 C 650.742188 329.390625 650.898438 329.582031 651.003906 329.800781 C 651.183594 330.199219 651.207031 330.683594 651.082031 331.226562 C 650.972656 331.707031 650.742188 332.253906 650.402344 332.847656 C 650.289062 333.046875 650.164062 333.253906 650.023438 333.46875 C 650.214844 333.914062 650.441406 334.378906 650.699219 334.84375 C 651.132812 335.636719 651.648438 336.4375 652.195312 337.164062 C 652.722656 337.875 653.277344 338.515625 653.824219 339.089844 C 654.375 339.667969 654.929688 340.195312 655.457031 340.667969 C 655.972656 341.136719 656.464844 341.558594 656.914062 341.894531 C 657.332031 342.207031 657.703125 342.441406 658.007812 342.5625 L 658.171875 342.617188 C 658.324219 342.65625 658.433594 342.660156 658.5 342.632812 C 658.511719 342.628906 658.523438 342.617188 658.53125 342.601562 L 658.539062 342.574219 C 658.570312 342.445312 658.546875 342.25 658.464844 342.03125 C 658.375 341.78125 658.21875 341.515625 658 341.277344 C 657.777344 341.039062 657.488281 340.808594 657.214844 340.59375 C 656.773438 340.242188 656.355469 339.914062 656.136719 339.507812 C 656.085938 339.414062 656.046875 339.320312 656.019531 339.226562 C 655.914062 338.867188 655.957031 338.511719 656.117188 338.199219 C 656.265625 337.914062 656.511719 337.667969 656.828125 337.496094 C 656.957031 337.429688 657.089844 337.375 657.234375 337.332031 C 657.773438 337.171875 658.410156 337.203125 659.054688 337.234375 C 659.351562 337.25 659.65625 337.265625 659.914062 337.257812 C 660.28125 337.25 660.609375 337.203125 660.9375 337.085938 C 661.273438 336.972656 661.625 336.78125 662.039062 336.484375 L 662.523438 336.121094 C 663.464844 335.398438 664.515625 334.589844 665.59375 335.050781 C 666.132812 335.277344 666.585938 335.832031 666.925781 336.492188 L 667.0625 335.816406 C 667.210938 335.054688 667.335938 334.320312 667.417969 333.636719 C 667.5 332.957031 667.535156 332.328125 667.511719 331.769531 C 667.488281 331.242188 667.410156 330.777344 667.21875 330.339844 C 667.023438 329.898438 666.695312 329.460938 666.171875 328.988281 C 665.734375 328.597656 665.160156 328.175781 664.601562 327.769531 C 663.640625 327.0625 662.710938 326.386719 662.375 325.753906 C 662.277344 325.574219 662.226562 325.398438 662.210938 325.230469 C 662.1875 324.921875 662.273438 324.652344 662.453125 324.417969 C 662.59375 324.230469 662.796875 324.066406 663.046875 323.933594 C 663.546875 323.667969 664.269531 323.503906 665.050781 323.441406 C 665.8125 323.378906 666.65625 323.40625 667.546875 323.523438 C 668.429688 323.640625 669.355469 323.84375 670.300781 324.125 C 671.199219 324.394531 672.117188 324.738281 673 325.117188 C 673.960938 325.53125 674.898438 326 675.746094 326.46875 C 676.554688 326.921875 677.277344 327.375 677.910156 327.859375 C 678.5625 328.355469 679.128906 328.890625 679.621094 329.496094 C 680.113281 330.097656 680.527344 330.769531 680.875 331.476562 C 681.214844 332.175781 681.496094 332.914062 681.71875 333.660156 C 681.960938 334.449219 682.144531 335.257812 682.234375 336.046875 C 682.316406 336.765625 682.320312 337.472656 682.21875 338.136719 Z M 649.402344 331.003906 C 649.40625 331.269531 649.441406 331.578125 649.515625 331.910156 C 649.695312 331.554688 649.820312 331.234375 649.886719 330.949219 C 649.949219 330.671875 649.953125 330.453125 649.890625 330.316406 C 649.863281 330.265625 649.832031 330.222656 649.796875 330.195312 C 649.753906 330.164062 649.703125 330.140625 649.660156 330.132812 C 649.628906 330.128906 649.605469 330.128906 649.589844 330.136719 L 649.558594 330.167969 C 649.449219 330.300781 649.394531 330.59375 649.402344 331.003906 Z M 650.683594 352.222656 C 650.078125 352.027344 649.398438 351.574219 648.722656 350.976562 L 648.769531 351.101562 C 649.140625 352.128906 649.515625 353.257812 649.882812 354.582031 C 650.25 355.902344 650.617188 357.421875 650.832031 358.976562 C 651.050781 360.550781 651.109375 362.164062 650.867188 363.648438 C 650.617188 365.175781 650.042969 366.566406 648.984375 367.746094 C 647.941406 368.914062 646.433594 369.855469 644.308594 370.503906 C 642.164062 371.15625 639.363281 371.511719 636.136719 371.464844 C 634.40625 371.4375 632.542969 371.296875 630.589844 371.027344 C 630.960938 373.652344 631.394531 376.238281 632.460938 378.417969 C 633.078125 379.667969 633.90625 380.796875 634.964844 381.5625 C 635.851562 382.207031 636.910156 382.601562 638.136719 382.59375 C 639.523438 382.589844 641.152344 382.089844 642.925781 381.257812 C 644.742188 380.402344 646.699219 379.199219 648.703125 377.808594 C 650.855469 376.316406 653.054688 374.609375 655.015625 372.816406 C 656.707031 371.269531 658.226562 369.648438 659.390625 368.035156 C 660.632812 366.3125 661.476562 364.59375 662.117188 362.875 C 662.683594 361.347656 663.101562 359.792969 663.5 358.234375 C 662.019531 357.890625 660.457031 357.660156 659.023438 357.453125 L 658.421875 357.363281 C 657.085938 357.167969 655.886719 356.96875 654.855469 356.742188 C 653.800781 356.507812 652.933594 356.234375 652.289062 355.894531 C 651.753906 355.605469 651.355469 355.261719 651.125 354.898438 C 650.980469 354.667969 650.894531 354.425781 650.875 354.183594 C 650.855469 353.921875 650.90625 353.667969 651.039062 353.421875 C 651.171875 353.164062 651.402344 352.925781 651.71875 352.722656 C 652.433594 352.273438 653.640625 352 654.867188 351.71875 C 655.46875 351.582031 656.082031 351.441406 656.589844 351.296875 C 657.339844 351.078125 657.953125 350.824219 658.445312 350.535156 C 658.910156 350.265625 659.261719 349.972656 659.515625 349.660156 C 659.757812 349.359375 659.914062 349.03125 660.007812 348.714844 C 660.105469 348.382812 660.140625 348.050781 660.144531 347.757812 C 660.148438 347.613281 660.144531 347.484375 660.128906 347.390625 C 659.832031 347.5 659.347656 347.820312 658.816406 348.167969 C 658.300781 348.503906 657.746094 348.871094 657.210938 349.136719 C 656.785156 349.355469 656.390625 349.5 656.015625 349.636719 C 655.464844 349.835938 654.953125 350.023438 654.480469 350.421875 C 654.320312 350.554688 654.140625 350.742188 653.953125 350.933594 C 653.117188 351.78125 652.199219 352.71875 650.679688 352.230469 Z M 660.101562 347.269531 C 660.078125 347.234375 660.097656 347.265625 660.117188 347.308594 Z M 680.355469 348.734375 L 679.824219 350.480469 C 680.765625 350.960938 681.710938 351.441406 682.671875 351.890625 C 683.785156 352.410156 684.929688 352.902344 686.148438 353.324219 C 687.351562 353.746094 688.625 354.109375 690.007812 354.34375 C 691.390625 354.578125 692.890625 354.6875 694.546875 354.613281 C 696.269531 354.53125 698.175781 354.25 700.089844 353.761719 C 701.859375 353.308594 703.632812 352.679688 705.269531 351.871094 C 706.996094 351.015625 708.574219 349.960938 709.882812 348.78125 C 711.128906 347.652344 712.136719 346.40625 712.785156 345.105469 C 713.386719 343.898438 713.683594 342.636719 713.753906 341.429688 C 713.832031 340.027344 713.609375 338.6875 713.214844 337.566406 C 712.578125 335.769531 711.46875 334.5 710.296875 333.308594 C 709.046875 335.597656 707.605469 337.820312 706.027344 339.90625 C 703.707031 342.984375 701.082031 345.777344 698.488281 347.820312 C 696.074219 349.726562 693.667969 350.992188 691.519531 351.261719 C 689.199219 351.550781 687.21875 350.699219 685.578125 349.390625 C 683.992188 348.121094 682.730469 346.425781 681.808594 344.953125 L 681.617188 344.648438 L 681.46875 344.929688 L 681.414062 345.140625 C 681.101562 346.304688 680.722656 347.539062 680.351562 348.738281 Z M 711.839844 330.234375 C 711.542969 330.882812 711.226562 331.53125 710.898438 332.175781 C 712.265625 333.546875 713.597656 334.976562 714.371094 337.160156 C 714.816406 338.417969 715.066406 339.925781 714.976562 341.496094 C 714.929688 342.296875 714.796875 343.117188 714.558594 343.929688 C 715.425781 342.363281 716.480469 340.769531 717.777344 339.144531 C 722.292969 333.476562 729.738281 327.472656 738.523438 320.386719 L 741.519531 317.96875 C 744.332031 315.691406 747.667969 312.964844 750.964844 310.269531 C 758.171875 304.378906 765.238281 298.601562 770.351562 294.71875 C 774.027344 291.921875 776.644531 290.144531 778.691406 289.1875 C 780.871094 288.175781 782.457031 288.050781 783.972656 288.613281 C 784.355469 288.757812 784.726562 288.941406 785.085938 289.15625 L 783.34375 286.667969 C 779.800781 281.605469 775.566406 275.550781 769.546875 269.644531 C 764.136719 269.976562 758.722656 270.324219 753.359375 271.375 C 747.929688 272.4375 742.539062 274.226562 737.214844 277.464844 C 733.484375 279.734375 729.773438 282.71875 726.046875 286.261719 C 722.367188 289.757812 718.664062 293.796875 714.890625 298.222656 C 715.058594 299.214844 714.878906 300.015625 714.660156 300.992188 C 714.441406 301.964844 714.179688 303.140625 714.246094 304.878906 C 714.28125 305.863281 714.425781 307.089844 714.59375 308.457031 C 715 311.824219 715.507812 316.085938 714.820312 320.644531 C 714.34375 323.777344 713.296875 327.035156 711.839844 330.234375 Z M 713.003906 294.457031 C 713.644531 295.28125 714.136719 296.085938 714.464844 296.839844 C 718.085938 292.613281 721.652344 288.746094 725.203125 285.375 C 728.992188 281.773438 732.769531 278.734375 736.578125 276.417969 C 742.042969 273.09375 747.570312 271.257812 753.128906 270.167969 C 758.191406 269.179688 763.269531 268.804688 768.351562 268.488281 C 766.257812 266.519531 763.960938 264.574219 761.410156 262.695312 C 756.675781 259.207031 751.085938 255.941406 745.097656 253.027344 C 730.066406 252.703125 715.03125 252.402344 699.179688 260.597656 C 695.300781 262.605469 691.359375 265.125 687.460938 268.070312 C 683.835938 270.804688 680.25 273.898438 676.777344 277.277344 C 677.945312 277.378906 679.148438 277.546875 680.398438 277.804688 C 682.972656 278.332031 685.734375 279.207031 688.488281 280.25 C 691.234375 281.285156 693.988281 282.492188 696.546875 283.671875 C 699.109375 284.851562 701.484375 286.007812 703.609375 287.179688 C 705.753906 288.355469 707.648438 289.546875 709.234375 290.777344 C 710.792969 291.988281 712.066406 293.25 713.007812 294.457031 Z M 673.132812 277.203125 C 673.789062 277.175781 674.449219 277.167969 675.125 277.1875 C 678.886719 273.457031 682.78125 270.058594 686.71875 267.089844 C 690.667969 264.113281 694.667969 261.550781 698.617188 259.507812 C 713.773438 251.671875 728.105469 251.472656 742.386719 251.75 C 735.386719 248.53125 727.945312 245.789062 720.753906 243.726562 C 713.574219 241.664062 706.652344 240.273438 699.695312 240 C 697.449219 239.910156 695.195312 239.9375 692.929688 240.089844 L 692.746094 240.105469 C 688.050781 240.441406 683.28125 241.335938 678.34375 242.921875 C 671.71875 245.046875 664.78125 248.414062 658.105469 252.832031 C 652.082031 256.816406 646.273438 261.648438 641.085938 267.195312 C 641.472656 267.230469 641.894531 267.28125 642.339844 267.347656 C 644.050781 267.609375 646.226562 268.140625 648.449219 268.921875 C 650.316406 269.578125 652.21875 270.414062 653.90625 271.417969 C 657.492188 273.550781 660.097656 276.417969 662.671875 279.308594 C 663.910156 278.878906 665.195312 278.507812 666.472656 278.195312 C 668.65625 277.660156 670.84375 277.300781 673.132812 277.203125 Z M 659.832031 280.421875 C 660.351562 280.191406 660.886719 279.96875 661.433594 279.757812 C 659.027344 277.0625 656.554688 274.414062 653.28125 272.46875 C 651.664062 271.503906 649.835938 270.703125 648.046875 270.074219 C 645.90625 269.320312 643.8125 268.8125 642.160156 268.558594 C 639.425781 268.140625 637.9375 268.4375 636.550781 268.71875 L 635.890625 268.851562 C 634.492188 269.117188 633.035156 269.398438 630.714844 271.261719 C 629.304688 272.390625 627.585938 274.089844 626.011719 276.136719 C 624.75 277.777344 623.578125 279.644531 622.742188 281.617188 C 621.804688 283.832031 621.28125 286.203125 620.960938 288.644531 C 620.679688 290.804688 620.5625 293.035156 620.460938 295.273438 L 621.445312 294.917969 C 623.878906 294.085938 626.1875 293.632812 628.257812 293.59375 C 630.3125 293.558594 632.140625 293.929688 633.652344 294.746094 C 635.195312 295.582031 636.394531 296.867188 637.367188 298.414062 C 638.316406 299.921875 639.050781 301.679688 639.691406 303.5 C 640.25 305.082031 640.734375 306.703125 641.207031 308.28125 C 641.8125 310.304688 642.402344 312.269531 643.078125 313.953125 C 643.671875 315.421875 644.339844 316.699219 645.066406 317.769531 C 645.792969 318.835938 646.582031 319.695312 647.40625 320.332031 C 648.195312 320.949219 649.066406 321.382812 649.855469 321.777344 C 650.761719 322.226562 651.566406 322.632812 652.152344 323.242188 C 652.96875 324.097656 653.210938 325.191406 653.46875 326.375 C 653.566406 326.828125 653.671875 327.292969 653.804688 327.742188 C 654.042969 328.523438 654.390625 329.308594 654.835938 330.023438 C 655.25 330.691406 655.75 331.300781 656.316406 331.792969 C 656.882812 332.285156 657.515625 332.660156 658.078125 332.882812 C 658.570312 333.074219 658.953125 333.144531 659.113281 333.066406 C 659.179688 333.027344 659.179688 332.609375 659.175781 332.078125 C 659.175781 331.648438 659.171875 331.167969 659.242188 330.660156 C 659.328125 330.03125 659.511719 329.417969 659.695312 328.808594 C 659.914062 328.070312 660.136719 327.324219 660.148438 326.683594 C 660.152344 326.179688 660.03125 325.695312 659.832031 325.261719 C 659.601562 324.757812 659.265625 324.324219 658.910156 324.007812 C 658.640625 323.773438 658.335938 323.585938 658.058594 323.417969 C 657.519531 323.085938 657.070312 322.8125 656.875 322.246094 C 656.613281 321.480469 657.011719 320.546875 657.660156 319.035156 L 657.851562 318.59375 C 658.191406 317.796875 658.585938 316.835938 658.851562 315.765625 C 659.113281 314.71875 659.25 313.550781 659.085938 312.3125 C 658.800781 310.152344 657.582031 307.675781 656.191406 304.855469 L 655.457031 303.359375 C 654.601562 301.589844 653.730469 299.695312 653.019531 297.8125 C 652.304688 295.90625 651.75 294.007812 651.546875 292.261719 C 651.339844 290.476562 651.492188 288.847656 652.050781 287.363281 C 652.609375 285.871094 653.570312 284.539062 654.96875 283.347656 C 656.265625 282.246094 657.949219 281.261719 659.832031 280.421875 Z M 707.019531 485.144531 C 711.691406 488.25 716.363281 491.351562 720.933594 494.339844 C 725.558594 497.371094 729.941406 500.195312 733.824219 502.605469 C 741.046875 507.089844 746.605469 510.179688 752.042969 513.164062 C 751.722656 512.027344 751.375 510.914062 751 509.828125 C 749.363281 505.082031 747.257812 500.769531 745.113281 496.792969 C 744.523438 495.691406 743.929688 494.625 743.347656 493.570312 C 739.625 486.84375 736.164062 480.585938 735.179688 471.335938 C 734.609375 465.996094 734.875 459.675781 735.554688 452.863281 C 736.21875 446.210938 737.273438 439.125 738.335938 432.03125 L 737.550781 431.773438 C 735.878906 431.261719 734.578125 431.109375 733.480469 431.292969 C 731.398438 431.636719 729.929688 433.273438 728.484375 434.953125 C 728.363281 439.921875 727.398438 445.082031 725.242188 450.617188 C 723.003906 456.359375 719.472656 462.503906 715.753906 468.976562 C 712.769531 474.171875 709.664062 479.578125 707.019531 485.148438 Z M 711.253906 358.582031 L 710.910156 360.464844 C 711.882812 356.949219 713.554688 353.832031 715.695312 351.117188 C 719.3125 346.523438 724.261719 343.0625 729.410156 340.699219 C 734.152344 338.519531 739.070312 337.269531 743.988281 336.636719 L 744.0625 336.625 C 744.316406 335.84375 744.785156 335.09375 745.507812 334.398438 C 746.695312 333.253906 748.574219 332.246094 751.300781 331.417969 C 753.980469 330.609375 757.507812 329.960938 761.183594 329.558594 C 764.828125 329.160156 768.640625 329 771.929688 329.160156 C 775.144531 329.320312 777.875 329.777344 780.058594 330.453125 C 782.453125 331.191406 784.21875 332.199219 785.277344 333.347656 C 785.964844 334.09375 786.371094 334.910156 786.4375 335.707031 C 786.472656 336.121094 786.417969 336.527344 786.261719 336.917969 C 786.109375 337.300781 785.863281 337.660156 785.523438 337.972656 C 784.734375 338.699219 783.402344 339.234375 781.449219 339.398438 C 778.886719 339.617188 775.199219 339.214844 770.871094 338.710938 C 771.5625 338.867188 772.1875 339.117188 772.722656 339.472656 C 774.0625 340.371094 774.816406 341.894531 775.246094 343.550781 C 775.660156 345.132812 775.78125 346.824219 775.863281 348.164062 C 775.921875 349.160156 775.960938 349.976562 775.84375 350.660156 C 775.964844 350.714844 776.082031 350.816406 776.199219 350.960938 C 776.324219 351.125 776.414062 351.332031 776.523438 351.597656 C 776.707031 352.035156 776.976562 352.695312 777.535156 353.285156 C 777.972656 353.753906 778.601562 354.210938 779.148438 354.609375 C 779.824219 355.097656 780.394531 355.515625 780.550781 355.9375 C 780.730469 356.421875 780.582031 356.785156 780.007812 356.996094 C 779.371094 357.226562 777.496094 357.121094 775.328125 356.933594 C 775.742188 359.15625 776.886719 361.824219 778.25 364.988281 L 779.394531 367.667969 C 780.855469 371.097656 782.410156 374.75 783.609375 376.949219 C 783.988281 377.640625 784.328125 378.183594 784.636719 378.613281 C 784.976562 378.605469 785.304688 378.636719 785.613281 378.6875 C 786.539062 378.851562 787.3125 379.253906 787.65625 379.601562 C 787.84375 379.789062 787.953125 379.996094 787.988281 380.203125 C 788.027344 380.46875 787.960938 380.703125 787.800781 380.894531 C 787.683594 381.035156 787.519531 381.144531 787.324219 381.214844 C 787.019531 381.332031 786.589844 381.363281 786.144531 381.273438 C 785.644531 381.171875 785.101562 380.929688 784.476562 380.320312 C 784.351562 380.195312 784.222656 380.054688 784.085938 379.898438 C 783.964844 379.917969 783.84375 379.945312 783.722656 379.984375 C 783.019531 380.195312 782.308594 380.664062 781.6875 381.296875 C 781.0625 381.933594 780.539062 382.730469 780.214844 383.597656 C 779.878906 384.492188 779.753906 385.460938 779.871094 386.398438 C 779.976562 387.269531 780.296875 388.117188 780.84375 388.839844 C 781.433594 389.609375 782.292969 390.253906 783.242188 390.648438 C 784.132812 391.019531 785.101562 391.171875 785.988281 391 C 787.089844 390.789062 788.152344 390.058594 789.171875 389.359375 C 789.933594 388.835938 790.675781 388.324219 791.457031 388.003906 C 791.976562 387.792969 792.496094 387.671875 792.976562 387.628906 C 793.613281 387.574219 794.199219 387.644531 794.660156 387.808594 C 795.210938 388.003906 795.617188 388.34375 795.796875 388.777344 C 795.84375 388.894531 795.875 389.019531 795.886719 389.15625 C 795.941406 389.753906 795.578125 390.335938 795.234375 390.835938 C 795.601562 390.742188 796.078125 390.589844 796.617188 390.398438 C 797.625 390.03125 798.800781 389.511719 799.839844 388.917969 C 800.902344 388.3125 801.804688 387.636719 802.453125 386.886719 C 803.066406 386.175781 803.453125 385.394531 803.523438 384.539062 C 803.59375 383.652344 803.332031 382.648438 802.789062 381.445312 C 802.214844 380.183594 801.328125 378.710938 800.1875 376.9375 L 799.214844 375.445312 C 796.992188 372.046875 794.238281 367.832031 792.550781 363.339844 C 791.578125 360.742188 790.964844 358.058594 790.730469 355.457031 C 790.492188 352.832031 790.636719 350.289062 791.171875 347.992188 C 791.675781 345.804688 792.53125 343.863281 793.390625 341.90625 C 794.304688 339.824219 795.230469 337.714844 795.714844 335.324219 C 796.46875 331.621094 796.210938 327.097656 795.957031 322.675781 C 795.894531 321.601562 795.832031 320.53125 795.785156 319.4375 C 795.746094 318.550781 795.714844 317.644531 795.6875 316.75 C 795.546875 312.398438 795.414062 308.3125 793.980469 304.214844 C 792.792969 300.8125 790.695312 297.347656 787.875 293.191406 L 787.808594 293.121094 C 786.628906 291.910156 785.117188 290.355469 783.550781 289.773438 C 782.355469 289.328125 781.054688 289.449219 779.210938 290.308594 C 777.234375 291.230469 774.683594 292.960938 771.085938 295.695312 C 766.09375 299.492188 758.988281 305.304688 751.742188 311.226562 C 748.6875 313.71875 745.617188 316.230469 742.289062 318.925781 L 739.289062 321.347656 C 730.5625 328.386719 723.167969 334.351562 718.734375 339.914062 C 716.289062 342.984375 714.738281 345.933594 713.679688 348.761719 C 712.613281 351.597656 712.042969 354.324219 711.558594 356.914062 L 711.253906 358.589844 Z M 788.820312 292.402344 C 789.449219 293.046875 789.972656 293.574219 790.296875 293.734375 C 790.371094 293.769531 790.453125 293.636719 790.542969 293.460938 C 790.609375 293.328125 790.679688 293.15625 790.75 292.988281 C 790.992188 292.40625 791.242188 291.804688 791.769531 291.484375 C 791.890625 291.410156 792.023438 291.359375 792.160156 291.324219 C 792.648438 291.203125 793.210938 291.332031 793.761719 291.703125 C 794.097656 291.929688 794.441406 292.257812 794.757812 292.675781 C 794.21875 290.160156 793.304688 287.238281 791.765625 284.058594 C 789.441406 279.242188 785.695312 273.839844 780.804688 268.636719 C 776.425781 263.972656 771.132812 259.472656 765.117188 255.699219 C 759.261719 252.027344 752.710938 249.035156 746.117188 246.675781 C 738.34375 243.890625 730.519531 241.984375 723.703125 240.871094 C 717.546875 239.867188 712.199219 239.507812 707.269531 239.480469 C 711.828125 240.136719 716.40625 241.199219 721.089844 242.546875 C 728.570312 244.695312 736.335938 247.570312 743.613281 250.96875 C 750.433594 254.152344 756.820312 257.789062 762.132812 261.707031 C 772.953125 269.679688 779.335938 278.800781 784.347656 285.964844 L 785.359375 287.40625 C 786.605469 289.1875 787.761719 290.839844 788.820312 292.398438 Z M 728.492188 433.09375 C 729.808594 431.65625 731.253906 430.421875 733.28125 430.082031 C 734.5625 429.867188 736.046875 430.035156 737.90625 430.601562 C 739.707031 431.152344 741.871094 432.082031 744.566406 433.410156 C 745.644531 433.941406 746.898438 434.582031 748.226562 435.261719 C 753.007812 437.710938 758.660156 440.601562 763.410156 441.90625 C 766.191406 442.667969 768.679688 442.890625 770.847656 442.710938 C 773.28125 442.507812 775.3125 441.808594 776.929688 440.816406 C 778.398438 439.917969 779.527344 438.78125 780.347656 437.457031 C 781.21875 436.046875 781.753906 434.421875 781.988281 432.644531 C 782.207031 430.972656 782.167969 429.148438 782.128906 427.421875 C 782.085938 425.429688 782.042969 423.566406 782.398438 422.125 C 782.460938 421.875 782.535156 421.636719 782.617188 421.410156 C 781.261719 421.21875 779.859375 420.832031 778.605469 420.183594 C 776.40625 419.042969 774.703125 417.132812 773.160156 415.402344 C 772.304688 414.4375 771.496094 413.53125 770.71875 412.890625 C 769.75 412.097656 768.765625 411.664062 768.199219 411.414062 C 767.683594 411.1875 767.367188 411.046875 767.335938 410.621094 C 767.296875 410.039062 767.734375 409.894531 768.828125 409.8125 C 769.390625 409.773438 770.234375 409.722656 771.261719 409.675781 C 771.21875 409.546875 771.222656 409.398438 771.273438 409.222656 C 771.414062 408.746094 772.398438 408.382812 773.835938 407.851562 C 775.382812 407.277344 777.535156 406.484375 779.515625 405.453125 C 781.609375 404.367188 783.535156 403.011719 785.179688 401.847656 C 786.746094 400.746094 788.070312 399.8125 789.113281 399.40625 C 791.082031 398.632812 791.988281 399.597656 792.617188 400.265625 L 792.722656 400.375 C 792.734375 400.191406 792.695312 399.953125 792.589844 399.671875 C 792.445312 399.289062 792.167969 398.832031 791.863281 398.328125 C 791.296875 397.394531 790.640625 396.3125 790.371094 395.039062 C 790.023438 393.417969 790.332031 391.605469 790.765625 389.757812 C 790.46875 389.949219 790.167969 390.15625 789.863281 390.363281 C 788.738281 391.136719 787.570312 391.941406 786.214844 392.199219 C 785.082031 392.417969 783.871094 392.238281 782.769531 391.777344 C 781.625 391.300781 780.589844 390.519531 779.867188 389.578125 C 779.179688 388.671875 778.78125 387.625 778.648438 386.542969 C 778.511719 385.414062 778.660156 384.246094 779.0625 383.167969 C 779.449219 382.136719 780.070312 381.1875 780.8125 380.4375 C 781.550781 379.679688 782.421875 379.109375 783.300781 378.832031 C 783.058594 378.457031 782.800781 378.027344 782.53125 377.53125 C 781.296875 375.273438 779.730469 371.597656 778.261719 368.148438 L 777.117188 365.472656 C 775.660156 362.089844 774.441406 359.257812 774.058594 356.816406 L 770.269531 356.457031 C 767.261719 356.1875 764.765625 355.960938 762.042969 355.003906 C 760.53125 354.472656 758.964844 353.71875 757.453125 352.898438 C 755.9375 352.078125 754.5 351.195312 753.222656 350.398438 C 751.929688 349.589844 750.796875 348.863281 750.128906 348.382812 C 747.585938 346.5625 747.191406 345.785156 750.296875 346.742188 C 750.621094 346.839844 751.175781 347.070312 751.921875 347.378906 C 753.722656 348.121094 756.679688 349.34375 760.011719 350.246094 C 762.304688 350.867188 764.773438 351.335938 767.003906 351.613281 C 769.28125 351.894531 771.300781 351.976562 772.625 351.824219 C 773.734375 351.691406 774.269531 351.40625 774.492188 350.929688 C 774.75 350.371094 774.710938 349.464844 774.636719 348.238281 C 774.558594 346.949219 774.441406 345.328125 774.054688 343.859375 C 773.691406 342.464844 773.085938 341.195312 772.035156 340.492188 C 771.058594 339.847656 769.652344 339.644531 768.035156 339.75 C 766.03125 339.878906 763.730469 340.476562 761.492188 341.28125 C 760.363281 341.683594 759.234375 342.148438 758.140625 342.597656 C 755.113281 343.839844 752.3125 344.988281 749.894531 344.742188 C 748.261719 344.578125 746.851562 343.777344 745.804688 342.683594 C 744.648438 341.480469 743.929688 339.910156 743.839844 338.429688 C 743.828125 338.246094 743.824219 338.066406 743.832031 337.890625 C 739.128906 338.519531 734.4375 339.734375 729.910156 341.8125 C 724.925781 344.101562 720.140625 347.441406 716.652344 351.875 C 713.710938 355.613281 711.691406 360.132812 711.261719 365.453125 C 710.4375 375.71875 715.488281 389.058594 720.292969 401.753906 C 721 403.613281 721.699219 405.464844 722.332031 407.175781 C 724.996094 414.351562 727.289062 421.152344 728.140625 428.195312 C 728.335938 429.8125 728.453125 431.445312 728.484375 433.09375 Z M 784.902344 420.179688 L 784.722656 420.34375 C 786.125 420.359375 787.324219 420.171875 787.996094 419.90625 C 788.175781 419.835938 788.296875 419.773438 788.363281 419.722656 L 788.347656 419.703125 C 788.113281 419.519531 787.679688 419.386719 787.167969 419.371094 C 786.445312 419.355469 785.601562 419.59375 784.902344 420.179688 Z M 768.5625 410.59375 L 768.59375 410.511719 C 768.558594 410.402344 768.542969 410.371094 768.554688 410.53125 L 768.558594 410.589844 Z M 768.5625 410.59375 C 768.570312 410.664062 768.578125 410.601562 768.59375 410.511719 Z M 782.878906 409.605469 C 784.929688 409.738281 786.515625 410 787.734375 410.394531 L 788.144531 410.539062 C 788.195312 410.320312 788.253906 410.101562 788.316406 409.878906 C 788.390625 409.632812 788.46875 409.382812 788.558594 409.132812 C 787.507812 409.273438 786.273438 409.363281 784.78125 409.46875 Z M 789.671875 413.050781 C 789.519531 412.832031 789.332031 412.628906 789.101562 412.445312 C 789.085938 412.761719 789.085938 413.070312 789.109375 413.371094 C 789.171875 414.15625 789.375 414.851562 789.628906 415.363281 C 789.765625 415.636719 789.914062 415.847656 790.058594 415.984375 L 790.105469 416.039062 C 790.1875 415.898438 790.25 415.601562 790.265625 415.234375 C 790.296875 414.675781 790.191406 414.015625 789.898438 413.425781 C 789.832031 413.292969 789.753906 413.167969 789.671875 413.050781 Z M 790.042969 416.113281 L 790.03125 416.117188 Z M 791.011719 406.882812 L 790.722656 407.367188 C 791.179688 407.179688 791.578125 406.945312 791.941406 406.644531 C 792.363281 406.292969 792.75 405.839844 793.078125 405.367188 C 793.488281 404.777344 793.800781 404.160156 793.976562 403.65625 L 794.089844 403.328125 C 793.953125 403.460938 793.746094 403.667969 793.476562 403.910156 C 792.804688 404.511719 792.023438 405.394531 791.351562 406.371094 Z M 773.941406 355.574219 C 773.90625 354.75 773.96875 353.996094 774.082031 353.34375 C 774.121094 353.117188 774.167969 352.902344 774.21875 352.703125 C 773.828125 352.855469 773.351562 352.96875 772.769531 353.035156 C 771.347656 353.203125 769.222656 353.117188 766.863281 352.828125 C 764.578125 352.542969 762.046875 352.0625 759.699219 351.425781 C 757.761719 350.902344 755.945312 350.265625 754.398438 349.679688 C 755.539062 350.386719 756.78125 351.136719 758.046875 351.820312 C 759.503906 352.613281 761.011719 353.339844 762.453125 353.84375 C 765.035156 354.753906 767.464844 354.972656 770.386719 355.238281 Z M 775.289062 353.554688 C 775.183594 354.171875 775.125 354.894531 775.175781 355.6875 C 776.683594 355.828125 778.042969 355.929688 778.871094 355.917969 L 778.429688 355.597656 C 777.839844 355.164062 777.148438 354.664062 776.644531 354.125 C 776.09375 353.535156 775.773438 352.929688 775.558594 352.445312 C 775.460938 352.734375 775.367188 353.109375 775.289062 353.554688 Z M 767.96875 338.523438 C 768.359375 338.5 768.738281 338.492188 769.109375 338.5 C 765.796875 338.113281 762.171875 337.703125 758.464844 337.484375 C 754.09375 337.222656 749.582031 337.222656 745.082031 337.734375 C 745.058594 337.9375 745.058594 338.140625 745.070312 338.351562 C 745.144531 339.550781 745.742188 340.839844 746.695312 341.835938 C 747.554688 342.730469 748.707031 343.386719 750.027344 343.523438 C 752.140625 343.738281 754.808594 342.644531 757.683594 341.460938 C 758.785156 341.011719 759.921875 340.542969 761.089844 340.125 C 763.429688 339.289062 765.847656 338.664062 767.96875 338.527344 Z M 746.359375 335.277344 C 745.964844 335.65625 745.667969 336.054688 745.457031 336.464844 C 749.875 336 754.273438 336.011719 758.539062 336.261719 C 762.625 336.503906 766.570312 336.96875 770.121094 337.386719 C 774.765625 337.929688 778.730469 338.398438 781.347656 338.175781 C 783.011719 338.035156 784.097656 337.625 784.695312 337.074219 C 784.902344 336.882812 785.042969 336.679688 785.128906 336.46875 C 785.210938 336.261719 785.238281 336.039062 785.21875 335.808594 C 785.175781 335.285156 784.882812 334.722656 784.378906 334.175781 C 783.460938 333.179688 781.882812 332.296875 779.699219 331.621094 C 777.609375 330.976562 774.980469 330.535156 771.875 330.382812 C 768.648438 330.226562 764.90625 330.382812 761.316406 330.773438 C 757.707031 331.167969 754.257812 331.800781 751.65625 332.589844 C 749.121094 333.359375 747.40625 334.269531 746.359375 335.277344 Z M 746.359375 335.277344"/></g></svg>